<svg width="715" height="728" xmlns="http://www.w3.org/2000/svg" xmlns:xlink="http://www.w3.org/1999/xlink" xml:space="preserve" overflow="hidden"><defs><filter id="fx0" x="-10%" y="-10%" width="120%" height="120%" filterUnits="userSpaceOnUse" primitiveUnits="userSpaceOnUse"><feComponentTransfer color-interpolation-filters="sRGB"><feFuncR type="discrete" tableValues="0.000000 0.000000"/><feFuncG type="discrete" tableValues="0.000000 0.000000"/><feFuncB type="discrete" tableValues="0.000000 0.000000"/><feFuncA type="linear" slope="0.545098" intercept="0.000000"/></feComponentTransfer><feGaussianBlur stdDeviation="4.434945 4.434877"/></filter><clipPath id="clip1"><rect x="0.693359" y="0.77668" width="356.571" height="360.57"/></clipPath><linearGradient x1="2964.02" y1="136.024" x2="3630.98" y2="794.976" gradientUnits="userSpaceOnUse" spreadMethod="reflect" id="fill2"><stop offset="0" stop-color="#FF3D33" stop-opacity="1"/><stop offset="0.09" stop-color="#FF3D33" stop-opacity="1"/><stop offset="0.49" stop-color="#215F9A" stop-opacity="1"/><stop offset="0.99" stop-color="#163E64" stop-opacity="1"/><stop offset="1" stop-color="#163E64" stop-opacity="1"/></linearGradient><linearGradient x1="2964.02" y1="136.024" x2="3630.98" y2="794.976" gradientUnits="userSpaceOnUse" spreadMethod="reflect" id="fill3"><stop offset="0" stop-color="#FF3D33" stop-opacity="1"/><stop offset="0.09" stop-color="#FF3D33" stop-opacity="1"/><stop offset="0.49" stop-color="#215F9A" stop-opacity="1"/><stop offset="0.99" stop-color="#163E64" stop-opacity="1"/><stop offset="1" stop-color="#163E64" stop-opacity="1"/></linearGradient><linearGradient x1="2964.02" y1="136.024" x2="3630.98" y2="794.976" gradientUnits="userSpaceOnUse" spreadMethod="reflect" id="fill4"><stop offset="0" stop-color="#FF3D33" stop-opacity="1"/><stop offset="0.09" stop-color="#FF3D33" stop-opacity="1"/><stop offset="0.49" stop-color="#215F9A" stop-opacity="1"/><stop offset="0.99" stop-color="#163E64" stop-opacity="1"/><stop offset="1" stop-color="#163E64" stop-opacity="1"/></linearGradient><linearGradient x1="2964.02" y1="136.024" x2="3630.98" y2="794.976" gradientUnits="userSpaceOnUse" spreadMethod="reflect" id="fill5"><stop offset="0" stop-color="#FF3D33" stop-opacity="1"/><stop offset="0.09" stop-color="#FF3D33" stop-opacity="1"/><stop offset="0.49" stop-color="#215F9A" stop-opacity="1"/><stop offset="0.99" stop-color="#163E64" stop-opacity="1"/><stop offset="1" stop-color="#163E64" stop-opacity="1"/></linearGradient><linearGradient x1="2964.02" y1="136.024" x2="3630.98" y2="794.976" gradientUnits="userSpaceOnUse" spreadMethod="reflect" id="fill6"><stop offset="0" stop-color="#FF3D33" stop-opacity="1"/><stop offset="0.09" stop-color="#FF3D33" stop-opacity="1"/><stop offset="0.49" stop-color="#215F9A" stop-opacity="1"/><stop offset="0.99" stop-color="#163E64" stop-opacity="1"/><stop offset="1" stop-color="#163E64" stop-opacity="1"/></linearGradient><linearGradient x1="2964.02" y1="136.024" x2="3630.98" y2="794.976" gradientUnits="userSpaceOnUse" spreadMethod="reflect" id="fill7"><stop offset="0" stop-color="#FF3D33" stop-opacity="1"/><stop offset="0.09" stop-color="#FF3D33" stop-opacity="1"/><stop offset="0.49" stop-color="#215F9A" stop-opacity="1"/><stop offset="0.99" stop-color="#163E64" stop-opacity="1"/><stop offset="1" stop-color="#163E64" stop-opacity="1"/></linearGradient><linearGradient x1="2964.02" y1="136.024" x2="3630.98" y2="794.976" gradientUnits="userSpaceOnUse" spreadMethod="reflect" id="fill8"><stop offset="0" stop-color="#FF3D33" stop-opacity="1"/><stop offset="0.09" stop-color="#FF3D33" stop-opacity="1"/><stop offset="0.49" stop-color="#215F9A" stop-opacity="1"/><stop offset="0.99" stop-color="#163E64" stop-opacity="1"/><stop offset="1" stop-color="#163E64" stop-opacity="1"/></linearGradient><linearGradient x1="2964.02" y1="136.024" x2="3630.98" y2="794.976" gradientUnits="userSpaceOnUse" spreadMethod="reflect" id="fill9"><stop offset="0" stop-color="#FF3D33" stop-opacity="1"/><stop offset="0.09" stop-color="#FF3D33" stop-opacity="1"/><stop offset="0.49" stop-color="#215F9A" stop-opacity="1"/><stop offset="0.99" stop-color="#163E64" stop-opacity="1"/><stop offset="1" stop-color="#163E64" stop-opacity="1"/></linearGradient><linearGradient x1="2964.02" y1="136.024" x2="3630.98" y2="794.976" gradientUnits="userSpaceOnUse" spreadMethod="reflect" id="fill10"><stop offset="0" stop-color="#FF3D33" stop-opacity="1"/><stop offset="0.09" stop-color="#FF3D33" stop-opacity="1"/><stop offset="0.49" stop-color="#215F9A" stop-opacity="1"/><stop offset="0.99" stop-color="#163E64" stop-opacity="1"/><stop offset="1" stop-color="#163E64" stop-opacity="1"/></linearGradient><linearGradient x1="2964.02" y1="136.024" x2="3630.98" y2="794.976" gradientUnits="userSpaceOnUse" spreadMethod="reflect" id="fill11"><stop offset="0" stop-color="#FF3D33" stop-opacity="1"/><stop offset="0.09" stop-color="#FF3D33" stop-opacity="1"/><stop offset="0.49" stop-color="#215F9A" stop-opacity="1"/><stop offset="0.99" stop-color="#163E64" stop-opacity="1"/><stop offset="1" stop-color="#163E64" stop-opacity="1"/></linearGradient><linearGradient x1="2964.02" y1="136.024" x2="3630.98" y2="794.976" gradientUnits="userSpaceOnUse" spreadMethod="reflect" id="fill12"><stop offset="0" stop-color="#FF3D33" stop-opacity="1"/><stop offset="0.09" stop-color="#FF3D33" stop-opacity="1"/><stop offset="0.49" stop-color="#215F9A" stop-opacity="1"/><stop offset="0.99" stop-color="#163E64" stop-opacity="1"/><stop offset="1" stop-color="#163E64" stop-opacity="1"/></linearGradient><linearGradient x1="2964.02" y1="136.024" x2="3630.98" y2="794.976" gradientUnits="userSpaceOnUse" spreadMethod="reflect" id="fill13"><stop offset="0" stop-color="#FF3D33" stop-opacity="1"/><stop offset="0.09" stop-color="#FF3D33" stop-opacity="1"/><stop offset="0.49" stop-color="#215F9A" stop-opacity="1"/><stop offset="0.99" stop-color="#163E64" stop-opacity="1"/><stop offset="1" stop-color="#163E64" stop-opacity="1"/></linearGradient><linearGradient x1="2964.02" y1="136.024" x2="3630.98" y2="794.976" gradientUnits="userSpaceOnUse" spreadMethod="reflect" id="fill14"><stop offset="0" stop-color="#FF3D33" stop-opacity="1"/><stop offset="0.09" stop-color="#FF3D33" stop-opacity="1"/><stop offset="0.49" stop-color="#215F9A" stop-opacity="1"/><stop offset="0.99" stop-color="#163E64" stop-opacity="1"/><stop offset="1" stop-color="#163E64" stop-opacity="1"/></linearGradient><linearGradient x1="2964.02" y1="136.024" x2="3630.98" y2="794.976" gradientUnits="userSpaceOnUse" spreadMethod="reflect" id="fill15"><stop offset="0" stop-color="#FF3D33" stop-opacity="1"/><stop offset="0.09" stop-color="#FF3D33" stop-opacity="1"/><stop offset="0.49" stop-color="#215F9A" stop-opacity="1"/><stop offset="0.99" stop-color="#163E64" stop-opacity="1"/><stop offset="1" stop-color="#163E64" stop-opacity="1"/></linearGradient><linearGradient x1="2964.02" y1="136.024" x2="3630.98" y2="794.976" gradientUnits="userSpaceOnUse" spreadMethod="reflect" id="fill16"><stop offset="0" stop-color="#FF3D33" stop-opacity="1"/><stop offset="0.09" stop-color="#FF3D33" stop-opacity="1"/><stop offset="0.49" stop-color="#215F9A" stop-opacity="1"/><stop offset="0.99" stop-color="#163E64" stop-opacity="1"/><stop offset="1" stop-color="#163E64" stop-opacity="1"/></linearGradient><linearGradient x1="2964.02" y1="136.024" x2="3630.98" y2="794.976" gradientUnits="userSpaceOnUse" spreadMethod="reflect" id="fill17"><stop offset="0" stop-color="#FF3D33" stop-opacity="1"/><stop offset="0.09" stop-color="#FF3D33" stop-opacity="1"/><stop offset="0.49" stop-color="#215F9A" stop-opacity="1"/><stop offset="0.99" stop-color="#163E64" stop-opacity="1"/><stop offset="1" stop-color="#163E64" stop-opacity="1"/></linearGradient></defs><g transform="translate(-2947 -119)"><g><g clip-path="url(#clip1)" filter="url(#fx0)" transform="matrix(1.99721 0 0 1.99724 2947 122)"><g transform="translate(2.27374e-13 0)"><g transform="matrix(1 0 0 1 0.000167787 4.64916e-06)"><path d="M13.9982 55.3884C13.9982 32.5751 32.4923 14.0813 55.3059 14.0813 78.1195 14.0813 96.6136 32.5751 96.6136 55.3884 96.6136 78.2016 78.1195 96.6954 55.3059 96.6954 32.4923 96.6954 13.9982 78.2016 13.9982 55.3884Z" fill="#FF0000" fill-rule="evenodd" fill-opacity="1"/><path d="M96.1129 55.3884C96.1129 32.5751 114.607 14.0813 137.421 14.0813 160.234 14.0813 178.728 32.5751 178.728 55.3884 178.728 78.2016 160.234 96.6954 137.421 96.6954 114.607 96.6954 96.1129 78.2016 96.1129 55.3884Z" fill="#FF0000" fill-rule="evenodd" fill-opacity="1"/><path d="M177.727 55.3884C177.727 32.5751 196.221 14.0813 219.034 14.0813 241.848 14.0813 260.342 32.5751 260.342 55.3884 260.342 78.2016 241.848 96.6954 219.034 96.6954 196.221 96.6954 177.727 78.2016 177.727 55.3884Z" fill="#FF0000" fill-rule="evenodd" fill-opacity="1"/><path d="M259.842 55.3884C259.842 32.5751 278.336 14.0813 301.149 14.0813 323.963 14.0813 342.457 32.5751 342.457 55.3884 342.457 78.2016 323.963 96.6954 301.149 96.6954 278.336 96.6954 259.842 78.2016 259.842 55.3884Z" fill="#FF0000" fill-rule="evenodd" fill-opacity="1"/><path d="M15.5003 223.12C15.5003 200.307 33.9944 181.813 56.808 181.813 79.6216 181.813 98.1157 200.307 98.1157 223.12 98.1157 245.933 79.6216 264.427 56.808 264.427 33.9944 264.427 15.5003 245.933 15.5003 223.12Z" fill="#FF0000" fill-rule="evenodd" fill-opacity="1"/><path d="M97.1143 223.12C97.1143 200.307 115.608 181.813 138.422 181.813 161.236 181.813 179.73 200.307 179.73 223.12 179.73 245.933 161.236 264.427 138.422 264.427 115.608 264.427 97.1143 245.933 97.1143 223.12Z" fill="#FF0000" fill-rule="evenodd" fill-opacity="1"/><path d="M179.229 223.12C179.229 200.307 197.723 181.813 220.537 181.813 243.35 181.813 261.844 200.307 261.844 223.12 261.844 245.933 243.35 264.427 220.537 264.427 197.723 264.427 179.229 245.933 179.229 223.12Z" fill="#FF0000" fill-rule="evenodd" fill-opacity="1"/><path d="M260.843 223.12C260.843 200.307 279.337 181.813 302.151 181.813 324.964 181.813 343.458 200.307 343.458 223.12 343.458 245.933 324.964 264.427 302.151 264.427 279.337 264.427 260.843 245.933 260.843 223.12Z" fill="#FF0000" fill-rule="evenodd" fill-opacity="1"/><path d="M15.5003 139.004C15.5003 116.191 33.9944 97.6968 56.808 97.6968 79.6216 97.6968 98.1157 116.191 98.1157 139.004 98.1157 161.817 79.6216 180.311 56.808 180.311 33.9944 180.311 15.5003 161.817 15.5003 139.004Z" fill="#FF0000" fill-rule="evenodd" fill-opacity="1"/><path d="M98.1157 139.004C98.1157 116.191 116.61 97.6968 139.423 97.6968 162.237 97.6968 180.731 116.191 180.731 139.004 180.731 161.817 162.237 180.311 139.423 180.311 116.61 180.311 98.1157 161.817 98.1157 139.004Z" fill="#FF0000" fill-rule="evenodd" fill-opacity="1"/><path d="M179.73 139.004C179.73 116.191 198.224 97.6968 221.037 97.6968 243.851 97.6968 262.345 116.191 262.345 139.004 262.345 161.817 243.851 180.311 221.037 180.311 198.224 180.311 179.73 161.817 179.73 139.004Z" fill="#FF0000" fill-rule="evenodd" fill-opacity="1"/><path d="M261.344 139.004C261.344 116.191 279.838 97.6968 302.651 97.6968 325.465 97.6968 343.959 116.191 343.959 139.004 343.959 161.817 325.465 180.311 302.651 180.311 279.838 180.311 261.344 161.817 261.344 139.004Z" fill="#FF0000" fill-rule="evenodd" fill-opacity="1"/><path d="M16.5017 306.736C16.5017 283.922 34.9958 265.428 57.8094 265.428 80.623 265.428 99.1171 283.922 99.1171 306.736 99.1171 329.549 80.623 348.043 57.8094 348.043 34.9958 348.043 16.5017 329.549 16.5017 306.736Z" fill="#FF0000" fill-rule="evenodd" fill-opacity="1"/><path d="M97.615 306.736C97.615 283.922 116.109 265.428 138.923 265.428 161.736 265.428 180.23 283.922 180.23 306.736 180.23 329.549 161.736 348.043 138.923 348.043 116.109 348.043 97.615 329.549 97.615 306.736Z" fill="#FF0000" fill-rule="evenodd" fill-opacity="1"/><path d="M179.229 306.736C179.229 283.922 197.723 265.428 220.537 265.428 243.35 265.428 261.844 283.922 261.844 306.736 261.844 329.549 243.35 348.043 220.537 348.043 197.723 348.043 179.229 329.549 179.229 306.736Z" fill="#FF0000" fill-rule="evenodd" fill-opacity="1"/><path d="M260.843 306.736C260.843 283.922 279.337 265.428 302.151 265.428 324.964 265.428 343.458 283.922 343.458 306.736 343.458 329.549 324.964 348.043 302.151 348.043 279.337 348.043 260.843 329.549 260.843 306.736Z" fill="#FF0000" fill-rule="evenodd" fill-opacity="1"/></g></g></g><path d="M2968 214.5C2968 168.937 3004.94 132 3050.5 132 3096.06 132 3133 168.937 3133 214.5 3133 260.063 3096.06 297 3050.5 297 3004.94 297 2968 260.063 2968 214.5Z" fill="url(#fill2)" fill-rule="evenodd"/><path d="M3132 214.5C3132 168.937 3168.94 132 3214.5 132 3260.06 132 3297 168.937 3297 214.5 3297 260.063 3260.06 297 3214.5 297 3168.94 297 3132 260.063 3132 214.5Z" fill="url(#fill3)" fill-rule="evenodd"/><path d="M3295 214.5C3295 168.937 3331.94 132 3377.5 132 3423.06 132 3460 168.937 3460 214.5 3460 260.063 3423.06 297 3377.5 297 3331.94 297 3295 260.063 3295 214.5Z" fill="url(#fill4)" fill-rule="evenodd"/><path d="M3459 214.5C3459 168.937 3495.94 132 3541.5 132 3587.06 132 3624 168.937 3624 214.5 3624 260.063 3587.06 297 3541.5 297 3495.94 297 3459 260.063 3459 214.5Z" fill="url(#fill5)" fill-rule="evenodd"/><path d="M2971 549.5C2971 503.937 3007.94 467 3053.5 467 3099.06 467 3136 503.937 3136 549.5 3136 595.064 3099.06 632 3053.5 632 3007.94 632 2971 595.064 2971 549.5Z" fill="url(#fill6)" fill-rule="evenodd"/><path d="M3134 549.5C3134 503.937 3170.94 467 3216.5 467 3262.06 467 3299 503.937 3299 549.5 3299 595.064 3262.06 632 3216.5 632 3170.94 632 3134 595.064 3134 549.5Z" fill="url(#fill7)" fill-rule="evenodd"/><path d="M3298 549.5C3298 503.937 3334.94 467 3380.5 467 3426.06 467 3463 503.937 3463 549.5 3463 595.064 3426.06 632 3380.5 632 3334.94 632 3298 595.064 3298 549.5Z" fill="url(#fill8)" fill-rule="evenodd"/><path d="M3461 549.5C3461 503.937 3497.94 467 3543.5 467 3589.06 467 3626 503.937 3626 549.5 3626 595.064 3589.06 632 3543.5 632 3497.94 632 3461 595.064 3461 549.5Z" fill="url(#fill9)" fill-rule="evenodd"/><path d="M2971 381.5C2971 335.937 3007.94 299 3053.5 299 3099.06 299 3136 335.937 3136 381.5 3136 427.064 3099.06 464 3053.5 464 3007.94 464 2971 427.064 2971 381.5Z" fill="url(#fill10)" fill-rule="evenodd"/><path d="M3136 381.5C3136 335.937 3172.94 299 3218.5 299 3264.06 299 3301 335.937 3301 381.5 3301 427.064 3264.06 464 3218.5 464 3172.94 464 3136 427.064 3136 381.5Z" fill="url(#fill11)" fill-rule="evenodd"/><path d="M3299 381.5C3299 335.937 3335.94 299 3381.5 299 3427.06 299 3464 335.937 3464 381.5 3464 427.064 3427.06 464 3381.5 464 3335.94 464 3299 427.064 3299 381.5Z" fill="url(#fill12)" fill-rule="evenodd"/><path d="M3462 381.5C3462 335.937 3498.94 299 3544.5 299 3590.06 299 3627 335.937 3627 381.5 3627 427.064 3590.06 464 3544.5 464 3498.94 464 3462 427.064 3462 381.5Z" fill="url(#fill13)" fill-rule="evenodd"/><path d="M2973 716.5C2973 670.936 3009.94 634 3055.5 634 3101.06 634 3138 670.936 3138 716.5 3138 762.063 3101.06 799 3055.5 799 3009.94 799 2973 762.063 2973 716.5Z" fill="url(#fill14)" fill-rule="evenodd"/><path d="M3135 716.5C3135 670.936 3171.94 634 3217.5 634 3263.06 634 3300 670.936 3300 716.5 3300 762.063 3263.06 799 3217.5 799 3171.94 799 3135 762.063 3135 716.5Z" fill="url(#fill15)" fill-rule="evenodd"/><path d="M3298 716.5C3298 670.936 3334.94 634 3380.5 634 3426.06 634 3463 670.936 3463 716.5 3463 762.063 3426.06 799 3380.5 799 3334.94 799 3298 762.063 3298 716.5Z" fill="url(#fill16)" fill-rule="evenodd"/><path d="M3461 716.5C3461 670.936 3497.94 634 3543.5 634 3589.06 634 3626 670.936 3626 716.5 3626 762.063 3589.06 799 3543.5 799 3497.94 799 3461 762.063 3461 716.5Z" fill="url(#fill17)" fill-rule="evenodd"/></g></g></svg>